{"title":"Bio-Zombie x264","uid":12110347,"size":1262448187,"categoryP":"video","categoryS":"movies","magnet":"?xt=urn:btih:4fe67f40843dabf71dcef1750c9f2334b8044740&amp;dn=Bio-Zombie+x264&amp;tr=udp%3A%2F%2Ftracker.openbittorrent.com%3A80&amp;tr=udp%3A%2F%2Fopen.demonii.com%3A1337&amp;tr=udp%3A%2F%2Ftracker.coppersurfer.tk%3A6969&amp;tr=udp%3A%2F%2Fexodus.desync.com%3A6969","seeders":0,"leechers":1,"uploader":"poppameth","files":3,"time":1436553103,"description":"A group of young shoppers and employees must band together when a zombie outbreak over runs their Hong Kong shopping center in the middle of the shopping day.\n\nThis movie is from the US DVD release. It contains only the English dub and English subs. Despite the DVD case stating that Cantonese audio is present it is not included on the DVD itself. \n\nGeneral\nComplete name                  : BioZombie.mp4\nFormat                         : MPEG-4\nFormat profile                 : Base Media / Version 2\nCodec ID                       : mp42\nFile size                      : 1.18 GiB\nDuration                       : 1h 35mn\nOverall bit rate mode          : Variable\nOverall bit rate               : 1 769 Kbps\nMovie name                     : BioZombie\nEncoded date                   : UTC 2036-02-06 06:28:16\nTagged date                    : UTC 2036-02-06 06:28:16\nWriting application            : HandBrake 0.10.2 2015060900\n\nVideo\nID                             : 1\nFormat                         : AVC\nFormat/Info                    : Advanced Video Codec\nFormat profile                 : &lt;a class=&quot;__cf_email__&quot; href=&quot;/cdn-cgi/l/email-protection&quot; data-cfemail=&quot;bef6d7d9d6fef28a908f&quot;&gt;[email&amp;#160;protected]&lt;/a&gt;&lt;script data-cfhash='f9e31' type=&quot;text/javascript&quot;&gt;\n/* &lt;![CDATA[ */!function(){try{var t=&quot;currentScript&quot;in document?document.currentScript:function(){for(var t=document.getElementsByTagName(&quot;script&quot;),e=t.length;e--;)if(t[e].getAttribute(&quot;data-cfhash&quot;))return t[e]}();if(t&amp;&amp;t.previousSibling){var e,r,n,i,c=t.previousSibling,a=c.getAttribute(&quot;data-cfemail&quot;);if(a){for(e=&quot;&quot;,r=parseInt(a.substr(0,2),16),n=2;a.length-n;n+=2)i=parseInt(a.substr(n,2),16)^r,e+=String.fromCharCode(i);e=document.createTextNode(e),c.parentNode.replaceChild(e,c)}t.parentNode.removeChild(t);}}catch(u){}}()/* ]]&gt; */&lt;/script&gt;\nFormat settings, CABAC         : Yes\nFormat settings, ReFrames      : 4 frames\nCodec ID                       : avc1\nCodec ID/Info                  : Advanced Video Coding\nDuration                       : 1h 35mn\nBit rate                       : 1 409 Kbps\nWidth                          : 708 pixels\nHeight                         : 360 pixels\nDisplay aspect ratio           : 16:9\nFrame rate mode                : Variable\nFrame rate                     : 29.970 fps\nMinimum frame rate             : 9.990 fps\nMaximum frame rate             : 29.970 fps\nColor space                    : YUV\nChroma subsampling             : 4:2:0\nBit depth                      : 8 bits\nScan type                      : Progressive\nBits/(Pixel*Frame)             : 0.184\nStream size                    : 959 MiB (80%)\nWriting library                : x264 core 142 r2479 dd79a61\nEncoding settings              : cabac=1 / ref=3 / deblock=1:0:0 / analyse=0x3:0x113 / me=hex / subme=7 / psy=1 / psy_rd=1.00:0.00 / mixed_ref=1 / me_range=16 / chroma_me=1 / trellis=1 / 8x8dct=1 / cqm=0 / deadzone=21,11 / fast_pskip=1 / chroma_qp_offset=-2 / threads=6 / lookahead_threads=1 / sliced_threads=0 / nr=0 / decimate=1 / interlaced=0 / bluray_compat=0 / constrained_intra=0 / bframes=3 / b_pyramid=2 / b_adapt=1 / b_bias=0 / direct=1 / weightb=1 / open_gop=0 / weightp=2 / keyint=300 / keyint_min=30 / scenecut=40 / intra_refresh=0 / rc_lookahead=40 / rc=crf / mbtree=1 / crf=20.0 / qcomp=0.60 / qpmin=0 / qpmax=69 / qpstep=4 / vbv_maxrate=62500 / vbv_bufsize=78125 / crf_max=0.0 / nal_hrd=none / filler=0 / ip_ratio=1.40 / aq=1:1.00\nEncoded date                   : UTC 2036-02-06 06:28:16\nTagged date                    : UTC 2036-02-06 06:28:16\nColor range                    : Limited\nColor primaries                : BT.601 NTSC\nTransfer characteristics       : BT.709\nMatrix coefficients            : BT.601\n\nAudio #1\nID                             : 2\nFormat                         : AAC\nFormat/Info                    : Advanced Audio Codec\nFormat profile                 : LC\nCodec ID                       : 40\nDuration                       : 1h 35mn\nBit rate mode                  : Variable\nBit rate                       : 160 Kbps\nChannel(s)                     : 2 channels\nChannel positions              : Front: L R\nSampling rate                  : 48.0 KHz\nCompression mode               : Lossy\nStream size                    : 109 MiB (9%)\nTitle                          : Stereo / Stereo\nLanguage                       : English\nEncoded date                   : UTC 2036-02-06 06:28:16\nTagged date                    : UTC 2036-02-06 06:28:16\n\nAudio #2\nID                             : 3\nFormat                         : AC-3\nFormat/Info                    : Audio Coding 3\nMode extension                 : CM (complete main)\nFormat settings, Endianness    : Big\nCodec ID                       : ac-3\nDuration                       : 1h 35mn\nBit rate mode                  : Constant\nBit rate                       : 192 Kbps\nChannel(s)                     : 2 channels\nChannel positions              : Front: L R\nSampling rate                  : 48.0 KHz\nBit depth                      : 16 bits\nCompression mode               : Lossy\nStream size                    : 131 MiB (11%)\nTitle                          : Stereo / Stereo\nLanguage                       : English\nEncoded date                   : UTC 2036-02-06 06:28:16\nTagged date                    : UTC 2036-02-06 06:28:16\n\nText\nID                             : 4\nFormat                         : Timed Text\nMuxing mode                    : sbtl\nCodec ID                       : tx3g\nDuration                       : 1h 32mn\nBit rate mode                  : Variable\nBit rate                       : 50 bps\nStream size                    : 33.8 KiB (0%)\nLanguage                       : English\nEncoded date                   : UTC 2036-02-06 06:28:16\nTagged date                    : UTC 2036-02-06 06:28:16\n\nMenu\nID                             : 5\nCodec ID                       : text\nDuration                       : 1h 35mn\nLanguage                       : English\nEncoded date                   : UTC 2036-02-06 06:28:16\nTagged date                    : UTC 2036-02-06 06:28:16\nBit rate mode                  : VBR","torrent":{"xt":"urn:btih:4fe67f40843dabf71dcef1750c9f2334b8044740","amp;dn":"Bio-Zombie+x264","amp;tr":["udp%3A%2F%2Ftracker.openbittorrent.com%3A80","udp%3A%2F%2Fopen.demonii.com%3A1337","udp%3A%2F%2Ftracker.coppersurfer.tk%3A6969","udp%3A%2F%2Fexodus.desync.com%3A6969"],"infoHash":"4fe67f40843dabf71dcef1750c9f2334b8044740","infoHashBuffer":{"type":"Buffer","data":[79,230,127,64,132,61,171,247,29,206,241,117,12,159,35,52,184,4,71,64]},"announce":[],"urlList":[]}}